 http://www.imdb.com/title/tt2309987/

Format : AVI
Format/Info : Audio Video Interleave
File size : 779 MiB
Duration : 2h 19mn
Overall bit rate : 782 Kbps

Video
ID : 0
Format : MPEG-4 Visual
Format profile : Advanced Simple@L5
Format settings, BVOP : 2
Format settings, QPel : Yes
Format settings, GMC : 3 warppoints
Format settings, Matrix : Default (H.263)
Codec ID : XVID
Codec ID/Hint : XviD
Duration : 2h 19mn
Bit rate : 680 Kbps
Width : 688 pixels
Height : 304 pixels
Display aspect ratio : 2.25:1
Frame rate : 23.976 fps
Stream size : 678 MiB (87%)

Audio

Codec ID/Hint : MP3
Duration : 2h 19mn
Bit rate mode : Constant
Bit rate : 96.0 Kbps
Channel(s) : 2 channels
Stream size : 95.7 MiB (12%)

 
http://www.shotpix.com/images/93314453982801498198.png
 
http://www.shotpix.com/images/23070710750094620480.png
 
http://www.shotpix.com/images/84806351915323190877.png
 
http://www.shotpix.com/images/29868359543159601697.png
 
http://www.shotpix.com/images/08595842409669571707.png
 
http://www.shotpix.com/images/72820784361983299892.png
 
http://www.shotpix.com/images/26792041357296082698.png
